<svg width="16" height="16" viewBox="0 0 16 16" fill="none" xmlns="http://www.w3.org/2000/svg">
<g clip-path="url(#clip0_13948_14081)">
<path d="M14.9902 7.31669L8.00016 11.5114L1.01016 7.31669C0.858547 7.22572 0.677004 7.1987 0.505471 7.24159C0.333937 7.28447 0.186465 7.39374 0.0954958 7.54535C0.00452654 7.69697 -0.0224879 7.87851 0.0203955 8.05005C0.0632788 8.22158 0.172547 8.36905 0.324163 8.46002L7.6575 12.86C7.76118 12.9223 7.87987 12.9552 8.00083 12.9552C8.12179 12.9552 8.24048 12.9223 8.34416 12.86L15.6775 8.46002C15.8291 8.36905 15.9384 8.22158 15.9813 8.05005C16.0241 7.87851 15.9971 7.69697 15.9062 7.54535C15.8152 7.39374 15.6677 7.28447 15.4962 7.24159C15.3247 7.1987 15.1431 7.22572 14.9915 7.31669H14.9902Z" fill="#909090"/>
<path d="M14.9902 10.3621L8.00016 14.5561L1.01016 10.3621C0.935088 10.3171 0.851879 10.2872 0.765284 10.2744C0.678689 10.2615 0.590403 10.2658 0.505469 10.287C0.420534 10.3082 0.340613 10.346 0.27027 10.3981C0.199926 10.4502 0.140537 10.5157 0.0954938 10.5908C0.0504504 10.6658 0.0206347 10.749 0.00774891 10.8356C-0.00513682 10.9222 -0.000840201 11.0105 0.0203935 11.0955C0.0632768 11.267 0.172545 11.4145 0.32416 11.5054L7.65749 15.9055C7.76118 15.9677 7.87987 16.0007 8.00083 16.0007C8.12179 16.0007 8.24047 15.9677 8.34416 15.9055L15.6775 11.5054C15.8291 11.4145 15.9384 11.267 15.9813 11.0955C16.0241 10.9239 15.9971 10.7424 15.9062 10.5908C15.8152 10.4391 15.6677 10.3299 15.4962 10.287C15.3247 10.2441 15.1431 10.2711 14.9915 10.3621H14.9902Z" fill="#909090"/>
<path d="M7.9090901 9.84887C7.6403 9.84867 7.2875 9.75073 6.97924 9.56553L0.323244 5.57153C0.224676 5.51226 0.143118 5.4285 0.0864983 5.32839C0.0298782 5.22828 0.00012207 5.11522 0.00012207 5.0002C0.00012207 4.88519 0.0298782 4.77213 0.0864983 4.67201C0.143118 4.5719 0.224676 4.48814 0.323244 4.42887L6.97924 0.434867C7.28749 0.249686 7.64031 0.151855 7.9090901 0.151855C8.35951 0.151855 8.71233 0.249686 9.02058 0.434867L15.6766 4.42887C15.7751 4.48814 15.8567 4.5719 15.9133 4.67201C15.9699 4.77213 15.9997 4.88519 15.9997 5.0002C15.9997 5.11522 15.9699 5.22828 15.9133 5.32839C15.8567 5.4285 15.7751 5.51226 15.6766 5.57153L9.02058 9.56553C8.71232 9.75073 8.35952 9.84867 7.9090901 9.84887ZM1.96258 5.0002L7.66658 8.4222C7.76732 8.48246 7.88252 8.51429 7.9090901 8.51429C8.1173 8.51429 8.2325 8.48246 8.33324 8.4222L14.0372 5.0002L8.33324 1.5782C8.2325 1.51794 8.1173 1.48611 7.9090901 1.48611C7.88252 1.48611 7.76732 1.51794 7.66658 1.5782L1.96258 5.0002Z" fill="#909090"/>
</g>
<defs>
<clipPath id="clip0_13948_14081">
<rect width="16" height="16" fill="white"/>
</clipPath>
</defs>
</svg>
