<svg width="16" height="16" viewBox="0 0 16 16" fill="none" xmlns="http://www.w3.org/2000/svg">
<g clip-path="url(#clip0_13948_14122)">
<path d="M12.4752 7.99987H9.33323C8.97961 7.99987 8.64047 7.85939 8.39042 7.60934C8.14037 7.35929 7.9999 7.02016 7.9999 6.66653V3.51587C8.00081 3.20919 7.93117 2.90641 7.79638 2.63094C7.6616 2.35547 7.46526 2.11468 7.22256 1.9272C6.99259 1.74507 6.72383 1.61825 6.43704 1.55652C6.15025 1.4948 5.85311 1.49982 5.56856 1.5712C3.95234 1.97241 2.52145 2.91324 1.51255 4.23811C0.503641 5.56298 -0.0228514 7.19252 0.0201389 8.85724C0.0631292 10.522 0.673027 12.1222 1.74897 13.3932C2.82491 14.6642 4.30245 15.5299 5.93723 15.8472C7.7753 16.199 9.67833 15.8348 11.2566 14.8292C12.8349 13.8235 13.9689 12.2525 14.4266 10.4379C14.4982 10.153 14.5034 9.8554 14.4418 9.56815C14.3802 9.28091 14.2534 9.01166 14.0712 8.7812C13.8815 8.53884 13.6394 8.34262 13.3629 8.20729C13.0865 8.07196 12.783 8.00105 12.4752 7.99987ZM13.1339 10.1119C12.8786 11.1398 12.3549 12.0814 11.6163 12.8405C10.8778 13.5996 9.95078 14.1489 8.93025 14.4323C7.90971 14.7156 6.83224 14.7227 5.80803 14.453C4.78383 14.1833 3.84964 13.6463 3.10104 12.8971C2.35243 12.1479 1.81626 11.2132 1.54738 10.1888C1.27849 9.16437 1.28654 8.0869 1.5707 7.0666C1.85485 6.04631 2.40492 5.11979 3.16463 4.38183C3.92435 3.64387 4.86644 3.12094 5.89457 2.86653C5.98252 2.84456 6.0744 2.84348 6.16285 2.8634C6.25129 2.88331 6.33385 2.92365 6.4039 2.9812C6.48663 3.04427 6.55371 3.12555 6.59996 3.21874C6.6462 3.31192 6.67036 3.4145 6.67056 3.51853V6.66653C6.67056 7.37378 6.95152 8.05205 7.45161 8.55215C7.95171 9.05225 8.62999 9.3332 9.33723 9.3332H12.4786C12.5835 9.33363 12.687 9.35785 12.7812 9.40404C12.8754 9.45023 12.958 9.51718 13.0226 9.59987C13.0792 9.6709 13.1187 9.75408 13.1379 9.8429C13.1571 9.93171 13.1555 10.0238 13.1332 10.1119H13.1339Z" fill="#909090"/>
<path d="M15.7675 4.96426C15.4606 3.8359 14.8643 2.80726 14.0378 1.98011C13.2112 1.15296 12.183 0.555983 11.0549 0.248255C10.9366 0.216462 10.8147 0.200324 10.6922 0.200255C10.516 0.198582 10.3413 0.231834 10.1781 0.298091C10.0148 0.364347 9.86634 0.462295 9.74118 0.586273C9.61603 0.710251 9.51668 0.857803 9.44888 1.0204C9.38109 1.183 9.34618 1.35742 9.34619 1.53359V4.66692C9.34619 5.19735 9.5569 5.70606 9.93198 6.08114C10.3071 6.45621 10.8158 6.66692 11.3462 6.66692H14.4922C14.698 6.66494 14.9005 6.61555 15.0841 6.52257C15.2677 6.4296 15.4274 6.29555 15.5508 6.13085C15.6741 5.96614 15.7579 5.7752 15.7955 5.57288C15.833 5.37056 15.8235 5.16229 15.7675 4.96426ZM14.1022 5.33359H11.3435C11.1667 5.33359 10.9971 5.26335 10.8721 5.13833C10.7471 5.0133 10.6769 4.84373 10.6769 4.66692L10.6715 1.53826C10.6764 1.53473 10.6822 1.53265 10.6882 1.53226H10.7055C11.6136 1.77964 12.4409 2.26086 13.1049 2.92788C13.7689 3.59491 14.2463 4.4244 14.4895 5.33359H14.1022Z" fill="#909090"/>
</g>
<defs>
<clipPath id="clip0_13948_14122">
<rect width="16" height="16" fill="white"/>
</clipPath>
</defs>
</svg>
