<svg width="20" height="20" viewBox="0 0 20 20" xmlns="http://www.w3.org/2000/svg"><path fill-rule="evenodd" clip-rule="evenodd" d="M5.994 5.128a4.042 4.042 0 0 1 3.738-2.503h.535c1.638 0 3.114.988 3.737 2.503l.029.068a7.375 7.375 0 0 1 .542 3.242l-.058.992a2.625 2.625 0 0 0 .37 1.505l.44.736a2.665 2.665 0 0 1-2.285 4.037H6.957a2.666 2.666 0 0 1-2.286-4.037l.441-.736c.272-.453.4-.977.37-1.505l-.059-.992a7.375 7.375 0 0 1 .543-3.242l.028-.068Zm3.738-1.086a2.625 2.625 0 0 0-2.428 1.625l-.028.069a5.958 5.958 0 0 0-.438 2.618l.058.993c.048.812-.15 1.62-.569 2.317l-.441.735a1.25 1.25 0 0 0 1.071 1.893h6.085a1.25 1.25 0 0 0 1.071-1.893l-.441-.735a4.041 4.041 0 0 1-.57-2.317l.06-.993a5.96 5.96 0 0 0-.44-2.618l-.028-.069a2.625 2.625 0 0 0-2.427-1.625h-.535ZM7.625 16.666c0-.39.317-.708.708-.708h3.334a.708.708 0 1 1 0 1.417H8.333a.708.708 0 0 1-.708-.709Z" fill="#909090" /></svg>
